Coordinates
version=1
nRows=8
nColumns=40
inDegrees=yes

Units are S.I. units (second, meters, Newtons, ...)
Angles are in degrees.

endheader
time	pelvis_tilt	pelvis_list	pelvis_rotation	pelvis_tx	pelvis_ty	pelvis_tz	hip_flexion_r	hip_adduction_r	hip_rotation_r	knee_angle_r	knee_angle_r_beta	ankle_angle_r	subtalar_angle_r	mtp_angle_r	hip_flexion_l	hip_adduction_l	hip_rotation_l	knee_angle_l	knee_angle_l_beta	ankle_angle_l	subtalar_angle_l	mtp_angle_l	lumbar_extension	lumbar_bending	lumbar_rotation	arm_flex_r	arm_add_r	arm_rot_r	elbow_flex_r	pro_sup_r	wrist_flex_r	wrist_dev_r	arm_flex_l	arm_add_l	arm_rot_l	elbow_flex_l	pro_sup_l	wrist_flex_l	wrist_dev_l
      1.42500000	     -6.01693148	     -3.34664951	      9.14547216	     -1.83129095	      0.94617907	      0.25250124	      6.50604735	      4.09759663	     -7.73753051	     92.76076189	     92.76076189	     -8.85936965	      0.00000000	      0.00000000	     32.50167795	     -4.49636559	     -1.31874494	     42.54686981	     42.54686981	     10.61016832	      0.00000000	      0.00000000	    -21.73363197	     -1.88781420	      5.93722369	    -20.71809101	    -29.24982814	      3.15571499	     88.26906613	     44.95566164	      0.00000000	      0.00000000	      1.29409468	    -27.35119439	      4.91435133	    106.63850477	     46.84517783	      0.00000000	      0.00000000
      1.43000000	     -5.91902676	     -3.40019307	      9.58885279	     -1.80966386	      0.94399118	      0.25083367	      8.68006515	      3.47095858	     -8.53098052	     95.03067476	     95.03067476	     -7.94137826	      0.00000000	      0.00000000	     31.82134942	     -4.70541111	     -1.25468608	     44.22061875	     44.22061875	     12.30070348	      0.00000000	      0.00000000	    -21.94678938	     -1.41630153	      5.00031293	    -22.42798969	    -29.52300676	      1.65423061	     89.03516780	     45.00957492	      0.00000000	      0.00000000	      3.36439313	    -27.23124404	      6.03922862	    106.53447876	     46.79661779	      0.00000000	      0.00000000
      1.43500000	     -5.83373865	     -3.49328215	      9.96318561	     -1.78786389	      0.94223917	      0.24940423	     10.89086828	      2.92168873	     -9.18215794	     97.00104063	     97.00104063	     -7.07729989	      0.00000000	      0.00000000	     30.99145447	     -5.03333378	     -1.16966856	     45.59812442	     45.59812442	     13.76093459	      0.00000000	      0.00000000	    -22.10866774	     -0.92396567	      4.09403783	    -24.21434045	    -29.76539686	      0.09242803	     90.02926019	     45.07997418	      0.00000000	      0.00000000	      5.27140040	    -27.11824957	      7.02344544	    106.59175187	     46.77080130	      0.00000000	      0.00000000
      1.44000000	     -5.76283656	     -3.62046574	     10.28771563	     -1.76585424	      0.94091405	      0.24811977	     13.12633235	      2.43335980	     -9.73303947	     98.66222232	     98.66222232	     -6.26684857	      0.00000000	      0.00000000	     29.98322330	     -5.44153811	     -1.06031488	     46.61641189	     46.61641189	     15.01752348	      0.00000000	      0.00000000	    -22.12945957	     -0.42753693	      2.64920242	    -25.18666301	    -30.57576326	     -0.21832833	     90.69340652	     45.13450615	      0.00000000	      0.00000000	      6.37780054	    -27.11521007	      7.11827604	    107.01339382	     46.79336614	      0.00000000	      0.00000000
      1.44500000	     -5.71576685	     -3.78399157	     10.54114925	     -1.74361203	      0.93995550	      0.24699687	     15.39019947	      2.01774427	    -10.17871806	    100.01703255	    100.01703255	     -5.48547038	      0.00000000	      0.00000000	     28.79933977	     -5.93163447	     -0.98285920	     47.27126735	     47.27126735	     16.12717898	      0.00000000	      0.00000000	    -22.19140860	      0.11689794	      2.32585251	    -27.95204610	    -30.23710457	     -2.89036181	     92.53376939	     45.27536597	      0.00000000	      0.00000000	      8.73092726	    -27.05644622	      8.74935355	    106.87066626	     46.76667928	      0.00000000	      0.00000000
      1.45000000	     -5.69249507	     -3.96464218	     10.73999012	     -1.72113995	      0.93931830	      0.24592078	     17.66604461	      1.62839359	    -10.55659005	    101.07465837	    101.07465837	     -4.77182744	      0.00000000	      0.00000000	     27.44010276	     -6.45104710	     -0.94121000	     47.57015306	     47.57015306	     17.08856166	      0.00000000	      0.00000000	    -22.07651132	      0.64885933	      1.01149561	    -29.29457549	    -30.92194803	     -3.45757616	     93.86539443	     45.38512270	      0.00000000	      0.00000000	      9.57716589	    -27.18499884	      8.70396815	    107.61711251	     46.80945167	      0.00000000	      0.00000000
      1.45500000	     -5.68840320	     -4.17727978	     10.88794194	     -1.69845016	      0.93894463	      0.24486026	     19.94250819	      1.30329621	    -10.86201471	    101.84333015	    101.84333015	     -4.05097202	      0.00000000	      0.00000000	     25.93021077	     -6.99993388	     -0.91032162	     47.56711865	     47.56711865	     17.94684850	      0.00000000	      0.00000000	    -21.96058771	      1.18114995	     -0.16193567	    -30.72598713	    -31.57571326	     -4.17260143	     95.13482058	     45.48400837	      0.00000000	      0.00000000	     10.38134839	    -27.28463436	      8.67340019	    108.39380695	     46.85817551	      0.00000000	      0.00000000
      1.46000000	     -5.71531421	     -4.40762431	     10.98352914	     -1.67556731	      0.93876068	      0.24376974	     22.21918791	      0.99252326	    -11.13167335	    102.33505706	    102.33505706	     -3.40121291	      0.00000000	      0.00000000	     24.30885998	     -7.55070418	     -0.91049195	     47.31332906	     47.31332906	     18.64226903	      0.00000000	      0.00000000	    -21.86941009	      1.78897627	     -0.91579250	    -32.87160231	    -31.40915517	     -6.14172508	     96.96061634	     45.62016020	      0.00000000	      0.00000000	     11.31295647	    -27.32900087	      8.82355283	    109.34941537	     46.91842641	      0.00000000	      0.00000000
